<svg xmlns="http://www.w3.org/2000/svg" width="896" height="176" version="1.0" viewBox="0 0 672 132" fill="#000" stroke="#fff">
    <path d="M25 47.9v7l3.3.3c2.9.3 3.2.6 3.5 4 .3 3.6.5 3.8 3.8 3.8 3.2 0 3.4.2 3.4 3.5s-.2 3.5-3.5 3.5-3.5.2-3.5 3.5-.2 3.5-3.5 3.5H25v15h14V77h3.5c3.3 0 3.5-.2 3.5-3.5 0-3.4.1-3.5 4-3.5s4 .1 4 3.5c0 3.3.2 3.5 3.5 3.5H61v15h14V77h-3.5c-3.3 0-3.5-.2-3.5-3.5s-.2-3.5-3.5-3.5-3.5-.2-3.5-3.5.2-3.5 3.5-3.5c3.4 0 3.5-.1 3.5-4s.1-4 3.5-4H75V41H61v15h-3.4c-3.2 0-3.5.3-3.8 3.2-.3 3-.6 3.3-4 3.6-3.7.3-3.8.3-3.8-3.2 0-3.4-.2-3.6-3.5-3.6H39V41H25v6.9zM90 44.5c0 3.3-.2 3.5-3.5 3.5H83v15h3.5c3.3 0 3.5.2 3.5 3.5V70h29v15H97v-8H83v3.5c0 3.3.2 3.5 3.5 3.5 3.4 0 3.5.1 3.5 4v4h36v-4c0-3.9.1-4 3.5-4h3.5V70h-3.5c-3.3 0-3.5-.2-3.5-3.5V63H97V48h22v7h14v-3.5c0-3.3-.2-3.5-3.5-3.5s-3.5-.2-3.5-3.5V41H90v3.5zM162 48.5V56h-14v7h13.9l.3 14.2.3 14.3h14l.3-14.3.3-14.2H191v-7h-14V41h-15v7.5zM278 48.5V56h-14v7h13.9l.3 14.2.3 14.3h14l.3-14.3.3-14.2H307v-7h-14V41h-15v7.5zM452 48.5V56h-14v7h13.9l.3 14.2.3 14.3h14l.3-14.3.3-14.2H481v-7h-14V41h-15v7.5zM206 59.5V63h29v7h-29v3.5c0 3.3-.2 3.5-3.5 3.5s-3.5.2-3.5 3.4c0 3.2.3 3.5 3.3 3.8 2.9.3 3.2.6 3.5 4l.3 3.8H249V63h-3.5c-3.3 0-3.5-.2-3.5-3.5V56h-36v3.5zM235 81v4h-22v-8h22v4zM322 59.5c0 3.3-.2 3.5-3.5 3.5H315v21h3.5c3.4 0 3.5.1 3.5 4v4h36v-7h-29v-8h36V63h-3.5c-3.3 0-3.5-.2-3.5-3.5V56h-36v3.5zm29 7V70h-22v-7h22v3.5zM503 59.5c0 3.3.2 3.5 3.5 3.5h3.5v22h-14v7h43v-7h-14V56h-22v3.5zM547 77.5V99h14V84h29v-3.5c0-3.3.2-3.5 3.5-3.5h3.5V63h-3.5c-3.3 0-3.5-.2-3.5-3.5V56h-43v21.5zm36-7.5v7h-22V63h22v7zM612 59.5c0 3.3-.2 3.5-3.5 3.5s-3.5.2-3.5 3.5.2 3.5 3.5 3.5 3.5.2 3.5 3.5V77h29v8h-36v7h43v-4c0-3.9.1-4 3.5-4 3.3 0 3.5-.2 3.5-3.5s-.2-3.5-3.5-3.5-3.5-.2-3.5-3.5V70h-29v-7h29v-7h-36v3.5zM387 84.5V92h14V77h-14v7.5z"/>
</svg>