<?xml version="1.0" standalone="no"?>
<!DOCTYPE svg PUBLIC "-//W3C//DTD SVG 20010904//EN"
 "http://www.w3.org/TR/2001/REC-SVG-20010904/DTD/svg10.dtd">
<svg version="1.0" xmlns="http://www.w3.org/2000/svg"
 width="672.000000pt" height="132.000000pt" viewBox="0 0 672.000000 132.000000"
 preserveAspectRatio="xMidYMid meet">
<metadata>
Created by potrace 1.15, written by Peter Selinger 2001-2017
</metadata>
<g transform="translate(0.000000,132.000000) scale(0.100000,-0.100000)"
fill="#000000" stroke="none">
<path d="M250 841 l0 -70 33 -3 c29 -3 32 -6 35 -40 3 -36 5 -38 38 -38 32 0
34 -2 34 -35 0 -33 -2 -35 -35 -35 -33 0 -35 -2 -35 -35 0 -33 -2 -35 -35 -35
l-35 0 0 -75 0 -75 70 0 70 0 0 75 0 75 35 0 c33 0 35 2 35 35 0 34 1 35 40
35 39 0 40 -1 40 -35 0 -33 2 -35 35 -35 l35 0 0 -75 0 -75 70 0 70 0 0 75 0
75 -35 0 c-33 0 -35 2 -35 35 0 33 -2 35 -35 35 -33 0 -35 2 -35 35 0 33 2 35
35 35 34 0 35 1 35 40 0 39 1 40 35 40 l35 0 0 70 0 70 -70 0 -70 0 0 -75 0
-75 -34 0 c-32 0 -35 -3 -38 -32 -3 -30 -6 -33 -40 -36 -37 -3 -38 -3 -38 32
0 34 -2 36 -35 36 l-35 0 0 75 0 75 -70 0 -70 0 0 -69z"/>
<path d="M900 875 c0 -33 -2 -35 -35 -35 l-35 0 0 -75 0 -75 35 0 c33 0 35 -2
35 -35 l0 -35 145 0 145 0 0 -75 0 -75 -110 0 -110 0 0 40 0 40 -70 0 -70 0 0
-35 c0 -33 2 -35 35 -35 34 0 35 -1 35 -40 l0 -40 180 0 180 0 0 40 c0 39 1
40 35 40 l35 0 0 70 0 70 -35 0 c-33 0 -35 2 -35 35 l0 35 -145 0 -145 0 0 75
0 75 110 0 110 0 0 -35 0 -35 70 0 70 0 0 35 c0 33 -2 35 -35 35 -33 0 -35 2
-35 35 l0 35 -180 0 -180 0 0 -35z"/>
<path d="M1620 835 l0 -75 -70 0 -70 0 0 -35 0 -35 70 0 69 0 3 -142 3 -143
70 0 70 0 3 143 3 142 69 0 70 0 0 35 0 35 -70 0 -70 0 0 75 0 75 -75 0 -75 0
0 -75z"/>
<path d="M2780 835 l0 -75 -70 0 -70 0 0 -35 0 -35 70 0 69 0 3 -142 3 -143
70 0 70 0 3 143 3 142 69 0 70 0 0 35 0 35 -70 0 -70 0 0 75 0 75 -75 0 -75 0
0 -75z"/>
<path d="M4520 835 l0 -75 -70 0 -70 0 0 -35 0 -35 70 0 69 0 3 -142 3 -143
70 0 70 0 3 143 3 142 69 0 70 0 0 35 0 35 -70 0 -70 0 0 75 0 75 -75 0 -75 0
0 -75z"/>
<path d="M2060 725 l0 -35 145 0 145 0 0 -35 0 -35 -145 0 -145 0 0 -35 c0
-33 -2 -35 -35 -35 -33 0 -35 -2 -35 -34 0 -32 3 -35 33 -38 29 -3 32 -6 35
-40 l3 -38 215 0 214 0 0 145 0 145 -35 0 c-33 0 -35 2 -35 35 l0 35 -180 0
-180 0 0 -35z m290 -215 l0 -40 -110 0 -110 0 0 40 0 40 110 0 110 0 0 -40z"/>
<path d="M3220 725 c0 -33 -2 -35 -35 -35 l-35 0 0 -105 0 -105 35 0 c34 0 35
-1 35 -40 l0 -40 180 0 180 0 0 35 0 35 -145 0 -145 0 0 40 0 40 180 0 180 0
0 70 0 70 -35 0 c-33 0 -35 2 -35 35 l0 35 -180 0 -180 0 0 -35z m290 -70 l0
-35 -110 0 -110 0 0 35 0 35 110 0 110 0 0 -35z"/>
<path d="M5030 725 c0 -33 2 -35 35 -35 l35 0 0 -110 0 -110 -70 0 -70 0 0
-35 0 -35 215 0 215 0 0 35 0 35 -70 0 -70 0 0 145 0 145 -110 0 -110 0 0 -35z"/>
<path d="M5470 545 l0 -215 70 0 70 0 0 75 0 75 145 0 145 0 0 35 c0 33 2 35
35 35 l35 0 0 70 0 70 -35 0 c-33 0 -35 2 -35 35 l0 35 -215 0 -215 0 0 -215z
m360 75 l0 -70 -110 0 -110 0 0 70 0 70 110 0 110 0 0 -70z"/>
<path d="M6120 725 c0 -33 -2 -35 -35 -35 -33 0 -35 -2 -35 -35 0 -33 2 -35
35 -35 33 0 35 -2 35 -35 l0 -35 145 0 145 0 0 -40 0 -40 -180 0 -180 0 0 -35
0 -35 215 0 215 0 0 40 c0 39 1 40 35 40 33 0 35 2 35 35 0 33 -2 35 -35 35
-33 0 -35 2 -35 35 l0 35 -145 0 -145 0 0 35 0 35 145 0 145 0 0 35 0 35 -180
0 -180 0 0 -35z"/>
<path d="M3870 475 l0 -75 70 0 70 0 0 75 0 75 -70 0 -70 0 0 -75z"/>
</g>
</svg>
